<mxfile host="app.diagrams.net" modified="2020-11-07T10:21:06.799Z" agent="5.0 (Windows NT 10.0; Win64; x64) AppleWebKit/537.36 (KHTML, like Gecko) Chrome/86.0.4240.111 Safari/537.36" etag="igMHB8TtvX9TxQjMgQMe" version="13.9.2" type="github">
  <diagram id="C5RBs43oDa-KdzZeNtuy" name="Page-1">
    <mxGraphModel dx="2129" dy="581" grid="1" gridSize="10" guides="1" tooltips="1" connect="1" arrows="1" fold="1" page="1" pageScale="1" pageWidth="827" pageHeight="1169" math="0" shadow="0">
      <root>
        <mxCell id="WIyWlLk6GJQsqaUBKTNV-0" />
        <mxCell id="WIyWlLk6GJQsqaUBKTNV-1" parent="WIyWlLk6GJQsqaUBKTNV-0" />
        <mxCell id="WIyWlLk6GJQsqaUBKTNV-3" value="开始" style="rounded=1;whiteSpace=wrap;html=1;fontSize=12;glass=0;strokeWidth=1;shadow=0;" parent="WIyWlLk6GJQsqaUBKTNV-1" vertex="1">
          <mxGeometry x="160" y="80" width="120" height="40" as="geometry" />
        </mxCell>
        <mxCell id="Gi-niLugF8dRM-M3lC_h-5" style="edgeStyle=orthogonalEdgeStyle;rounded=0;orthogonalLoop=1;jettySize=auto;html=1;" edge="1" parent="WIyWlLk6GJQsqaUBKTNV-1">
          <mxGeometry relative="1" as="geometry">
            <mxPoint x="219" y="130" as="targetPoint" />
            <mxPoint x="219" y="130" as="sourcePoint" />
          </mxGeometry>
        </mxCell>
        <mxCell id="Gi-niLugF8dRM-M3lC_h-10" value="" style="edgeStyle=orthogonalEdgeStyle;rounded=0;orthogonalLoop=1;jettySize=auto;html=1;" edge="1" parent="WIyWlLk6GJQsqaUBKTNV-1" source="Gi-niLugF8dRM-M3lC_h-1" target="Gi-niLugF8dRM-M3lC_h-7">
          <mxGeometry relative="1" as="geometry" />
        </mxCell>
        <mxCell id="Gi-niLugF8dRM-M3lC_h-1" value="操作手机1、2清理缓存后登录目标游戏" style="rounded=1;whiteSpace=wrap;html=1;fontSize=12;glass=0;strokeWidth=1;shadow=0;" vertex="1" parent="WIyWlLk6GJQsqaUBKTNV-1">
          <mxGeometry x="159" y="150" width="122" height="40" as="geometry" />
        </mxCell>
        <mxCell id="Gi-niLugF8dRM-M3lC_h-6" value="" style="endArrow=classic;html=1;exitX=0.5;exitY=1;exitDx=0;exitDy=0;entryX=0.5;entryY=0;entryDx=0;entryDy=0;" edge="1" parent="WIyWlLk6GJQsqaUBKTNV-1" source="WIyWlLk6GJQsqaUBKTNV-3" target="Gi-niLugF8dRM-M3lC_h-1">
          <mxGeometry width="50" height="50" relative="1" as="geometry">
            <mxPoint x="390" y="280" as="sourcePoint" />
            <mxPoint x="440" y="230" as="targetPoint" />
          </mxGeometry>
        </mxCell>
        <mxCell id="Gi-niLugF8dRM-M3lC_h-13" value="" style="edgeStyle=orthogonalEdgeStyle;rounded=0;orthogonalLoop=1;jettySize=auto;html=1;" edge="1" parent="WIyWlLk6GJQsqaUBKTNV-1" source="Gi-niLugF8dRM-M3lC_h-7" target="Gi-niLugF8dRM-M3lC_h-11">
          <mxGeometry relative="1" as="geometry" />
        </mxCell>
        <mxCell id="Gi-niLugF8dRM-M3lC_h-7" value="用户选择/data或/sdcard作为起始定位路径" style="rounded=1;whiteSpace=wrap;html=1;fontSize=12;glass=0;strokeWidth=1;shadow=0;" vertex="1" parent="WIyWlLk6GJQsqaUBKTNV-1">
          <mxGeometry x="100" y="240" width="240" height="45" as="geometry" />
        </mxCell>
        <mxCell id="Gi-niLugF8dRM-M3lC_h-11" value="文件夹内的文件是否包含缓存文件" style="rhombus;whiteSpace=wrap;html=1;shadow=0;fontFamily=Helvetica;fontSize=12;align=center;strokeWidth=1;spacing=6;spacingTop=-4;" vertex="1" parent="WIyWlLk6GJQsqaUBKTNV-1">
          <mxGeometry x="162" y="320" width="116" height="80" as="geometry" />
        </mxCell>
        <mxCell id="Gi-niLugF8dRM-M3lC_h-14" value="查找到了缓存文件夹，进一步定位内部文件" style="rounded=1;whiteSpace=wrap;html=1;fontSize=12;glass=0;strokeWidth=1;shadow=0;" vertex="1" parent="WIyWlLk6GJQsqaUBKTNV-1">
          <mxGeometry x="330" y="454" width="140" height="40" as="geometry" />
        </mxCell>
        <mxCell id="Gi-niLugF8dRM-M3lC_h-16" value="Yes" style="rounded=0;html=1;jettySize=auto;orthogonalLoop=1;fontSize=11;endArrow=block;endFill=0;endSize=8;strokeWidth=1;shadow=0;labelBackgroundColor=none;edgeStyle=orthogonalEdgeStyle;entryX=0.5;entryY=0;entryDx=0;entryDy=0;" edge="1" parent="WIyWlLk6GJQsqaUBKTNV-1" target="Gi-niLugF8dRM-M3lC_h-14">
          <mxGeometry y="20" relative="1" as="geometry">
            <mxPoint as="offset" />
            <mxPoint x="280" y="360" as="sourcePoint" />
            <mxPoint x="666" y="544" as="targetPoint" />
            <Array as="points">
              <mxPoint x="400" y="360" />
              <mxPoint x="400" y="454" />
            </Array>
          </mxGeometry>
        </mxCell>
        <mxCell id="Gi-niLugF8dRM-M3lC_h-19" value="No" style="rounded=0;html=1;jettySize=auto;orthogonalLoop=1;fontSize=11;endArrow=block;endFill=0;endSize=8;strokeWidth=1;shadow=0;labelBackgroundColor=none;edgeStyle=orthogonalEdgeStyle;exitX=0.5;exitY=1;exitDx=0;exitDy=0;" edge="1" parent="WIyWlLk6GJQsqaUBKTNV-1" source="Gi-niLugF8dRM-M3lC_h-11">
          <mxGeometry x="0.3333" y="20" relative="1" as="geometry">
            <mxPoint as="offset" />
            <mxPoint x="220" y="467" as="sourcePoint" />
            <mxPoint x="220" y="517" as="targetPoint" />
          </mxGeometry>
        </mxCell>
        <mxCell id="Gi-niLugF8dRM-M3lC_h-17" value="按照最近修改的时间排序子文件夹" style="rounded=1;whiteSpace=wrap;html=1;fontSize=12;glass=0;strokeWidth=1;shadow=0;" vertex="1" parent="WIyWlLk6GJQsqaUBKTNV-1">
          <mxGeometry x="155" y="651" width="130" height="42" as="geometry" />
        </mxCell>
        <mxCell id="Gi-niLugF8dRM-M3lC_h-24" value="是否包含子文件夹" style="rhombus;whiteSpace=wrap;html=1;shadow=0;fontFamily=Helvetica;fontSize=12;align=center;strokeWidth=1;spacing=6;spacingTop=-4;" vertex="1" parent="WIyWlLk6GJQsqaUBKTNV-1">
          <mxGeometry x="161" y="517" width="118" height="80" as="geometry" />
        </mxCell>
        <mxCell id="Gi-niLugF8dRM-M3lC_h-35" value="" style="endArrow=classic;html=1;entryX=0;entryY=0.5;entryDx=0;entryDy=0;" edge="1" parent="WIyWlLk6GJQsqaUBKTNV-1">
          <mxGeometry width="50" height="50" relative="1" as="geometry">
            <mxPoint x="34" y="530" as="sourcePoint" />
            <mxPoint x="161" y="360" as="targetPoint" />
            <Array as="points">
              <mxPoint x="34" y="360" />
            </Array>
          </mxGeometry>
        </mxCell>
        <mxCell id="Gi-niLugF8dRM-M3lC_h-39" value="Yes" style="edgeStyle=orthogonalEdgeStyle;rounded=0;html=1;jettySize=auto;orthogonalLoop=1;fontSize=11;endArrow=block;endFill=0;endSize=8;strokeWidth=1;shadow=0;labelBackgroundColor=none;" edge="1" parent="WIyWlLk6GJQsqaUBKTNV-1" target="Gi-niLugF8dRM-M3lC_h-17">
          <mxGeometry y="10" relative="1" as="geometry">
            <mxPoint as="offset" />
            <mxPoint x="220" y="601" as="sourcePoint" />
            <mxPoint x="757" y="655" as="targetPoint" />
          </mxGeometry>
        </mxCell>
        <mxCell id="Gi-niLugF8dRM-M3lC_h-40" value="按排序结果遍历子文件夹" style="rounded=1;whiteSpace=wrap;html=1;fontSize=12;glass=0;strokeWidth=1;shadow=0;" vertex="1" parent="WIyWlLk6GJQsqaUBKTNV-1">
          <mxGeometry x="-36" y="528" width="138" height="40" as="geometry" />
        </mxCell>
        <mxCell id="Gi-niLugF8dRM-M3lC_h-42" value="" style="endArrow=classic;html=1;entryX=0.5;entryY=1;entryDx=0;entryDy=0;" edge="1" parent="WIyWlLk6GJQsqaUBKTNV-1" target="Gi-niLugF8dRM-M3lC_h-40">
          <mxGeometry width="50" height="50" relative="1" as="geometry">
            <mxPoint x="150" y="667" as="sourcePoint" />
            <mxPoint x="480" y="607" as="targetPoint" />
            <Array as="points">
              <mxPoint x="31" y="667" />
            </Array>
          </mxGeometry>
        </mxCell>
        <mxCell id="Gi-niLugF8dRM-M3lC_h-44" value="No" style="rounded=0;html=1;jettySize=auto;orthogonalLoop=1;fontSize=11;endArrow=block;endFill=0;endSize=8;strokeWidth=1;shadow=0;labelBackgroundColor=none;edgeStyle=orthogonalEdgeStyle;exitX=1;exitY=0.5;exitDx=0;exitDy=0;" edge="1" parent="WIyWlLk6GJQsqaUBKTNV-1" source="Gi-niLugF8dRM-M3lC_h-24">
          <mxGeometry y="20" relative="1" as="geometry">
            <mxPoint as="offset" />
            <mxPoint x="330" y="560" as="sourcePoint" />
            <mxPoint x="220" y="210" as="targetPoint" />
            <Array as="points">
              <mxPoint x="510" y="557" />
              <mxPoint x="510" y="210" />
            </Array>
          </mxGeometry>
        </mxCell>
        <mxCell id="Gi-niLugF8dRM-M3lC_h-45" value="&lt;font color=&quot;#009900&quot;&gt;定位缓存文件夹&lt;/font&gt;" style="rounded=0;whiteSpace=wrap;html=1;" vertex="1" parent="WIyWlLk6GJQsqaUBKTNV-1">
          <mxGeometry x="130" y="10" width="170" height="60" as="geometry" />
        </mxCell>
        <mxCell id="Gi-niLugF8dRM-M3lC_h-46" value="&lt;font color=&quot;#009900&quot;&gt;定位缓存文件夹里的缓存文件&lt;/font&gt;" style="rounded=0;whiteSpace=wrap;html=1;" vertex="1" parent="WIyWlLk6GJQsqaUBKTNV-1">
          <mxGeometry x="750" y="15" width="170" height="60" as="geometry" />
        </mxCell>
        <mxCell id="Gi-niLugF8dRM-M3lC_h-47" value="开始" style="rounded=1;whiteSpace=wrap;html=1;fontSize=12;glass=0;strokeWidth=1;shadow=0;" vertex="1" parent="WIyWlLk6GJQsqaUBKTNV-1">
          <mxGeometry x="780" y="100" width="120" height="40" as="geometry" />
        </mxCell>
        <mxCell id="Gi-niLugF8dRM-M3lC_h-49" value="用户键入手机1的账号" style="rounded=1;whiteSpace=wrap;html=1;fontSize=12;glass=0;strokeWidth=1;shadow=0;" vertex="1" parent="WIyWlLk6GJQsqaUBKTNV-1">
          <mxGeometry x="780" y="166" width="122" height="40" as="geometry" />
        </mxCell>
        <mxCell id="Gi-niLugF8dRM-M3lC_h-51" value="在文件夹里寻找内容包含账号的所有文件，以及以这些名开头的文件&lt;br&gt;" style="rounded=1;whiteSpace=wrap;html=1;fontSize=12;glass=0;strokeWidth=1;shadow=0;" vertex="1" parent="WIyWlLk6GJQsqaUBKTNV-1">
          <mxGeometry x="775" y="225" width="130" height="50" as="geometry" />
        </mxCell>
        <mxCell id="Gi-niLugF8dRM-M3lC_h-53" value="" style="edgeStyle=orthogonalEdgeStyle;rounded=0;orthogonalLoop=1;jettySize=auto;html=1;exitX=0.5;exitY=1;exitDx=0;exitDy=0;entryX=0.5;entryY=0;entryDx=0;entryDy=0;" edge="1" parent="WIyWlLk6GJQsqaUBKTNV-1" source="Gi-niLugF8dRM-M3lC_h-47" target="Gi-niLugF8dRM-M3lC_h-49">
          <mxGeometry relative="1" as="geometry">
            <mxPoint x="230" y="-150" as="sourcePoint" />
            <mxPoint x="230" y="-115" as="targetPoint" />
          </mxGeometry>
        </mxCell>
        <mxCell id="Gi-niLugF8dRM-M3lC_h-54" value="" style="edgeStyle=orthogonalEdgeStyle;rounded=0;orthogonalLoop=1;jettySize=auto;html=1;exitX=0.5;exitY=1;exitDx=0;exitDy=0;" edge="1" parent="WIyWlLk6GJQsqaUBKTNV-1" source="Gi-niLugF8dRM-M3lC_h-49">
          <mxGeometry relative="1" as="geometry">
            <mxPoint x="240" y="-140" as="sourcePoint" />
            <mxPoint x="841" y="226" as="targetPoint" />
          </mxGeometry>
        </mxCell>
        <mxCell id="Gi-niLugF8dRM-M3lC_h-87" style="edgeStyle=orthogonalEdgeStyle;rounded=0;orthogonalLoop=1;jettySize=auto;html=1;" edge="1" parent="WIyWlLk6GJQsqaUBKTNV-1" target="Gi-niLugF8dRM-M3lC_h-86">
          <mxGeometry relative="1" as="geometry">
            <mxPoint x="662" y="705" as="sourcePoint" />
          </mxGeometry>
        </mxCell>
        <mxCell id="Gi-niLugF8dRM-M3lC_h-55" value="是否为缓存文件" style="rhombus;whiteSpace=wrap;html=1;shadow=0;fontFamily=Helvetica;fontSize=12;align=center;strokeWidth=1;spacing=6;spacingTop=-4;" vertex="1" parent="WIyWlLk6GJQsqaUBKTNV-1">
          <mxGeometry x="782" y="315" width="116" height="80" as="geometry" />
        </mxCell>
        <mxCell id="Gi-niLugF8dRM-M3lC_h-56" value="No&lt;br&gt;" style="edgeStyle=orthogonalEdgeStyle;rounded=0;html=1;jettySize=auto;orthogonalLoop=1;fontSize=11;endArrow=block;endFill=0;endSize=8;strokeWidth=1;shadow=0;labelBackgroundColor=none;exitX=0.5;exitY=1;exitDx=0;exitDy=0;" edge="1" parent="WIyWlLk6GJQsqaUBKTNV-1" source="Gi-niLugF8dRM-M3lC_h-55">
          <mxGeometry y="10" relative="1" as="geometry">
            <mxPoint as="offset" />
            <mxPoint x="230" y="166" as="sourcePoint" />
            <mxPoint x="840" y="435" as="targetPoint" />
          </mxGeometry>
        </mxCell>
        <mxCell id="Gi-niLugF8dRM-M3lC_h-57" value="" style="edgeStyle=orthogonalEdgeStyle;rounded=0;orthogonalLoop=1;jettySize=auto;html=1;exitX=0.5;exitY=1;exitDx=0;exitDy=0;entryX=0.5;entryY=0;entryDx=0;entryDy=0;" edge="1" parent="WIyWlLk6GJQsqaUBKTNV-1" source="Gi-niLugF8dRM-M3lC_h-51" target="Gi-niLugF8dRM-M3lC_h-55">
          <mxGeometry relative="1" as="geometry">
            <mxPoint x="851" y="216" as="sourcePoint" />
            <mxPoint x="851" y="236" as="targetPoint" />
          </mxGeometry>
        </mxCell>
        <mxCell id="Gi-niLugF8dRM-M3lC_h-58" value="该游戏是否支持&lt;br&gt;切换账户" style="rhombus;whiteSpace=wrap;html=1;shadow=0;fontFamily=Helvetica;fontSize=12;align=center;strokeWidth=1;spacing=6;spacingTop=-4;" vertex="1" parent="WIyWlLk6GJQsqaUBKTNV-1">
          <mxGeometry x="782" y="435" width="116" height="80" as="geometry" />
        </mxCell>
        <mxCell id="Gi-niLugF8dRM-M3lC_h-72" value="" style="edgeStyle=orthogonalEdgeStyle;rounded=0;orthogonalLoop=1;jettySize=auto;html=1;" edge="1" parent="WIyWlLk6GJQsqaUBKTNV-1" source="Gi-niLugF8dRM-M3lC_h-60" target="Gi-niLugF8dRM-M3lC_h-67">
          <mxGeometry relative="1" as="geometry" />
        </mxCell>
        <mxCell id="Gi-niLugF8dRM-M3lC_h-73" value="" style="edgeStyle=orthogonalEdgeStyle;rounded=0;orthogonalLoop=1;jettySize=auto;html=1;" edge="1" parent="WIyWlLk6GJQsqaUBKTNV-1" target="Gi-niLugF8dRM-M3lC_h-67">
          <mxGeometry relative="1" as="geometry">
            <mxPoint x="662" y="500" as="sourcePoint" />
          </mxGeometry>
        </mxCell>
        <mxCell id="Gi-niLugF8dRM-M3lC_h-60" value="手机1登录手机2账号，获取登录前到登录成功时间段内修改的文件" style="rounded=1;whiteSpace=wrap;html=1;fontSize=12;glass=0;strokeWidth=1;shadow=0;" vertex="1" parent="WIyWlLk6GJQsqaUBKTNV-1">
          <mxGeometry x="597" y="450" width="130" height="50" as="geometry" />
        </mxCell>
        <mxCell id="Gi-niLugF8dRM-M3lC_h-65" value="Yes" style="edgeStyle=orthogonalEdgeStyle;rounded=0;html=1;jettySize=auto;orthogonalLoop=1;fontSize=11;endArrow=block;endFill=0;endSize=8;strokeWidth=1;shadow=0;labelBackgroundColor=none;entryX=1;entryY=0.5;entryDx=0;entryDy=0;" edge="1" parent="WIyWlLk6GJQsqaUBKTNV-1" target="Gi-niLugF8dRM-M3lC_h-60">
          <mxGeometry y="10" relative="1" as="geometry">
            <mxPoint as="offset" />
            <mxPoint x="782" y="475" as="sourcePoint" />
            <mxPoint x="782" y="525" as="targetPoint" />
            <Array as="points">
              <mxPoint x="727" y="475" />
              <mxPoint x="727" y="475" />
            </Array>
          </mxGeometry>
        </mxCell>
        <mxCell id="Gi-niLugF8dRM-M3lC_h-66" value="切换到另外一个账号，获取切换前到切换成功时间段内修改的文件" style="rounded=1;whiteSpace=wrap;html=1;fontSize=12;glass=0;strokeWidth=1;shadow=0;" vertex="1" parent="WIyWlLk6GJQsqaUBKTNV-1">
          <mxGeometry x="597" y="539" width="130" height="50" as="geometry" />
        </mxCell>
        <mxCell id="Gi-niLugF8dRM-M3lC_h-88" value="" style="edgeStyle=orthogonalEdgeStyle;rounded=0;orthogonalLoop=1;jettySize=auto;html=1;" edge="1" parent="WIyWlLk6GJQsqaUBKTNV-1" source="Gi-niLugF8dRM-M3lC_h-67" target="Gi-niLugF8dRM-M3lC_h-86">
          <mxGeometry relative="1" as="geometry" />
        </mxCell>
        <mxCell id="Gi-niLugF8dRM-M3lC_h-67" value="获取两次都修改的文件" style="rounded=1;whiteSpace=wrap;html=1;fontSize=12;glass=0;strokeWidth=1;shadow=0;" vertex="1" parent="WIyWlLk6GJQsqaUBKTNV-1">
          <mxGeometry x="597" y="615" width="130" height="50" as="geometry" />
        </mxCell>
        <mxCell id="Gi-niLugF8dRM-M3lC_h-68" value="" style="edgeStyle=orthogonalEdgeStyle;rounded=0;orthogonalLoop=1;jettySize=auto;html=1;entryX=0.5;entryY=0;entryDx=0;entryDy=0;" edge="1" parent="WIyWlLk6GJQsqaUBKTNV-1">
          <mxGeometry relative="1" as="geometry">
            <mxPoint x="662" y="500" as="sourcePoint" />
            <mxPoint x="661.5" y="540" as="targetPoint" />
            <Array as="points">
              <mxPoint x="662" y="520" />
            </Array>
          </mxGeometry>
        </mxCell>
        <mxCell id="Gi-niLugF8dRM-M3lC_h-80" value="手机1重新登录，获取的登录前到登录成功时间段内修改的文件&lt;br&gt;" style="rounded=1;whiteSpace=wrap;html=1;fontSize=12;glass=0;strokeWidth=1;shadow=0;" vertex="1" parent="WIyWlLk6GJQsqaUBKTNV-1">
          <mxGeometry x="778" y="555" width="128" height="50" as="geometry" />
        </mxCell>
        <mxCell id="Gi-niLugF8dRM-M3lC_h-84" value="" style="edgeStyle=orthogonalEdgeStyle;rounded=0;orthogonalLoop=1;jettySize=auto;html=1;entryX=0.5;entryY=0;entryDx=0;entryDy=0;" edge="1" parent="WIyWlLk6GJQsqaUBKTNV-1">
          <mxGeometry relative="1" as="geometry">
            <mxPoint x="843" y="605" as="sourcePoint" />
            <mxPoint x="842.5" y="645" as="targetPoint" />
            <Array as="points">
              <mxPoint x="843" y="625" />
            </Array>
          </mxGeometry>
        </mxCell>
        <mxCell id="Gi-niLugF8dRM-M3lC_h-85" value="No" style="edgeStyle=orthogonalEdgeStyle;rounded=0;html=1;jettySize=auto;orthogonalLoop=1;fontSize=11;endArrow=block;endFill=0;endSize=8;strokeWidth=1;shadow=0;labelBackgroundColor=none;entryX=0.5;entryY=0;entryDx=0;entryDy=0;exitX=0.5;exitY=1;exitDx=0;exitDy=0;" edge="1" parent="WIyWlLk6GJQsqaUBKTNV-1">
          <mxGeometry y="10" relative="1" as="geometry">
            <mxPoint as="offset" />
            <mxPoint x="838" y="515" as="sourcePoint" />
            <mxPoint x="840" y="555" as="targetPoint" />
            <Array as="points">
              <mxPoint x="840" y="515" />
            </Array>
          </mxGeometry>
        </mxCell>
        <mxCell id="Gi-niLugF8dRM-M3lC_h-86" value="是否为缓存文件" style="rhombus;whiteSpace=wrap;html=1;shadow=0;fontFamily=Helvetica;fontSize=12;align=center;strokeWidth=1;spacing=6;spacingTop=-4;" vertex="1" parent="WIyWlLk6GJQsqaUBKTNV-1">
          <mxGeometry x="604" y="715" width="116" height="80" as="geometry" />
        </mxCell>
        <mxCell id="Gi-niLugF8dRM-M3lC_h-89" value="是否为缓存文件" style="rhombus;whiteSpace=wrap;html=1;shadow=0;fontFamily=Helvetica;fontSize=12;align=center;strokeWidth=1;spacing=6;spacingTop=-4;" vertex="1" parent="WIyWlLk6GJQsqaUBKTNV-1">
          <mxGeometry x="784" y="644" width="116" height="80" as="geometry" />
        </mxCell>
        <mxCell id="Gi-niLugF8dRM-M3lC_h-94" value="" style="edgeStyle=orthogonalEdgeStyle;rounded=0;orthogonalLoop=1;jettySize=auto;html=1;" edge="1" parent="WIyWlLk6GJQsqaUBKTNV-1" source="Gi-niLugF8dRM-M3lC_h-90">
          <mxGeometry relative="1" as="geometry">
            <mxPoint x="660" y="695" as="targetPoint" />
            <Array as="points">
              <mxPoint x="750" y="790" />
              <mxPoint x="750" y="695" />
            </Array>
          </mxGeometry>
        </mxCell>
        <mxCell id="Gi-niLugF8dRM-M3lC_h-90" value="手机1重新登录，获取的登录前到登录成功时间段内访问的文件" style="rounded=1;whiteSpace=wrap;html=1;fontSize=12;glass=0;strokeWidth=1;shadow=0;" vertex="1" parent="WIyWlLk6GJQsqaUBKTNV-1">
          <mxGeometry x="772.5" y="764" width="135" height="52" as="geometry" />
        </mxCell>
        <mxCell id="Gi-niLugF8dRM-M3lC_h-92" value="No&lt;br&gt;" style="edgeStyle=orthogonalEdgeStyle;rounded=0;html=1;jettySize=auto;orthogonalLoop=1;fontSize=11;endArrow=block;endFill=0;endSize=8;strokeWidth=1;shadow=0;labelBackgroundColor=none;exitX=0.5;exitY=1;exitDx=0;exitDy=0;" edge="1" parent="WIyWlLk6GJQsqaUBKTNV-1">
          <mxGeometry x="0.1854" relative="1" as="geometry">
            <mxPoint as="offset" />
            <mxPoint x="839.5" y="724" as="sourcePoint" />
            <mxPoint x="842" y="765" as="targetPoint" />
            <Array as="points">
              <mxPoint x="842.5" y="724" />
              <mxPoint x="842.5" y="745" />
            </Array>
          </mxGeometry>
        </mxCell>
        <mxCell id="Gi-niLugF8dRM-M3lC_h-95" value="查找到缓存文件" style="rounded=1;whiteSpace=wrap;html=1;fontSize=12;glass=0;strokeWidth=1;shadow=0;" vertex="1" parent="WIyWlLk6GJQsqaUBKTNV-1">
          <mxGeometry x="778" y="885" width="135" height="52" as="geometry" />
        </mxCell>
        <mxCell id="Gi-niLugF8dRM-M3lC_h-98" value="Yes" style="edgeStyle=orthogonalEdgeStyle;rounded=0;html=1;jettySize=auto;orthogonalLoop=1;fontSize=11;endArrow=block;endFill=0;endSize=8;strokeWidth=1;shadow=0;labelBackgroundColor=none;entryX=0;entryY=0.5;entryDx=0;entryDy=0;exitX=0.5;exitY=1;exitDx=0;exitDy=0;" edge="1" parent="WIyWlLk6GJQsqaUBKTNV-1" source="Gi-niLugF8dRM-M3lC_h-86" target="Gi-niLugF8dRM-M3lC_h-95">
          <mxGeometry y="10" relative="1" as="geometry">
            <mxPoint as="offset" />
            <mxPoint x="792" y="485" as="sourcePoint" />
            <mxPoint x="737" y="485" as="targetPoint" />
            <Array as="points">
              <mxPoint x="662" y="911" />
            </Array>
          </mxGeometry>
        </mxCell>
        <mxCell id="Gi-niLugF8dRM-M3lC_h-99" value="Yes" style="edgeStyle=orthogonalEdgeStyle;rounded=0;html=1;jettySize=auto;orthogonalLoop=1;fontSize=11;endArrow=block;endFill=0;endSize=8;strokeWidth=1;shadow=0;labelBackgroundColor=none;exitX=1;exitY=0.5;exitDx=0;exitDy=0;entryX=1;entryY=0.5;entryDx=0;entryDy=0;" edge="1" parent="WIyWlLk6GJQsqaUBKTNV-1" source="Gi-niLugF8dRM-M3lC_h-55" target="Gi-niLugF8dRM-M3lC_h-95">
          <mxGeometry y="10" relative="1" as="geometry">
            <mxPoint as="offset" />
            <mxPoint x="802" y="495" as="sourcePoint" />
            <mxPoint x="1060" y="919" as="targetPoint" />
            <Array as="points">
              <mxPoint x="990" y="355" />
              <mxPoint x="990" y="911" />
            </Array>
          </mxGeometry>
        </mxCell>
        <mxCell id="Gi-niLugF8dRM-M3lC_h-100" value="直接使用缓存文件夹" style="rounded=1;whiteSpace=wrap;html=1;fontSize=12;glass=0;strokeWidth=1;shadow=0;" vertex="1" parent="WIyWlLk6GJQsqaUBKTNV-1">
          <mxGeometry x="534" y="952" width="115" height="52" as="geometry" />
        </mxCell>
        <mxCell id="Gi-niLugF8dRM-M3lC_h-101" value="Yes" style="edgeStyle=orthogonalEdgeStyle;rounded=0;html=1;jettySize=auto;orthogonalLoop=1;fontSize=11;endArrow=block;endFill=0;endSize=8;strokeWidth=1;shadow=0;labelBackgroundColor=none;exitX=0;exitY=0.5;exitDx=0;exitDy=0;" edge="1" parent="WIyWlLk6GJQsqaUBKTNV-1" source="Gi-niLugF8dRM-M3lC_h-86">
          <mxGeometry y="10" relative="1" as="geometry">
            <mxPoint as="offset" />
            <mxPoint x="672" y="805" as="sourcePoint" />
            <mxPoint x="590" y="953" as="targetPoint" />
            <Array as="points">
              <mxPoint x="590" y="755" />
              <mxPoint x="590" y="953" />
            </Array>
          </mxGeometry>
        </mxCell>
      </root>
    </mxGraphModel>
  </diagram>
</mxfile>
